<svg xmlns="http://www.w3.org/2000/svg">
<symbol id="icon-check" viewBox="0 0 768 1024"><title>check</title><path d="M640 192l-384 384-128-128-128 128 256 256 512-512-128-128z"/></symbol>
<symbol id="icon-info" viewBox="0 0 896 1024"><title>info</title><path d="M448 384c35 0 64-29 64-64s-29-64-64-64-64 29-64 64 29 64 64 64zM448 64c-247 0-448 201-448 448s201 448 448 448 448-201 448-448-201-448-448-448zM448 832c-177 0-320-143-320-320s143-320 320-320 320 143 320 320-143 320-320 320zM512 512c0-32-32-64-64-64s-32 0-64 0-64 32-64 64h64s0 160 0 192 32 64 64 64 32 0 64 0 64-32 64-64h-64s0-160 0-192z"/></symbol>
<symbol id="icon-home" viewBox="0 0 1024 1024"><title>home</title><path d="M192 576l64 384h192v-320h128v320h192l64-384-320-320-320 320zM832 384v-256h-128l0.312 128.312-192.312-192.312-512 512h128l384-384 384 384h128l-192-192z"/></symbol>
<symbol id="icon-package" viewBox="0 0 1024 1024"><title>package</title><path d="M480 64l-480 128v576l480 128 480-128v-576l-480-128zM63.875 720.934l-0.375-432.934 384.498 102.533 0.001 432.833-384.124-102.432zM63.5 224l160.254-42.734 416.246 111.134-160 42.667-416.5-111.067zM896.125 720.934l-384.124 102.432 0.001-432.833 127.998-34.133v156l128-34.135v-155.998l128.5-34.267-0.375 432.934zM768 258.267v-0.125l-416.266-111.004 128.266-34.204 416.5 111.066-128.5 34.267z"/></symbol>
<symbol id="icon-reddit" viewBox="0 0 1024 1024"><title>reddit</title><path d="M256 640c0-35.346 28.654-64 64-64s64 28.654 64 64c0 35.346-28.654 64-64 64s-64-28.654-64-64zm384 0c0-35.346 28.654-64 64-64s64 28.654 64 64c0 35.346-28.654 64-64 64s-64-28.654-64-64zm3.112 136.778c16.482-12.986 40.376-10.154 53.364 6.332s10.152 40.378-6.334 53.366C644.246 872.634 574.32 896 512 896c-62.322 0-132.248-23.366-178.144-59.522-16.486-12.99-19.32-36.882-6.332-53.368 12.99-16.482 36.882-19.318 53.366-6.332C407.312 797.596 459.612 820 512 820s104.688-22.404 131.112-43.222zM1024 512c0-70.692-57.308-128-128-128-48.116 0-89.992 26.57-111.852 65.82-65.792-35.994-145.952-59.246-233.28-64.608l76.382-171.526 146.194 42.2C786.596 293.228 822.162 320 864 320c53.02 0 96-42.98 96-96s-42.98-96-96-96c-36.56 0-68.342 20.442-84.554 50.514L616.54 131.49c-18.224-5.258-37.538 3.722-45.252 21.052l-103.77 233.026c-85.138 5.996-163.262 29.022-227.636 64.236C218.018 410.554 176.116 384 128 384 57.308 384 0 441.308 0 512c0 52.312 31.402 97.254 76.372 117.102C68.302 653.13 64 678.206 64 704c0 176.73 200.576 320 448 320 247.422 0 448-143.27 448-320 0-25.792-4.3-50.862-12.368-74.886C992.602 609.264 1024 564.312 1024 512zM864 188c19.882 0 36 16.118 36 36s-16.118 36-36 36-36-16.118-36-36 16.118-36 36-36zM64 512c0-35.29 28.71-64 64-64 25.508 0 47.572 15.004 57.846 36.646-33.448 25.366-61.166 54.626-81.666 86.738C80.656 561.914 64 538.872 64 512zm448 436c-205.45 0-372-109.242-372-244s166.55-244 372-244 372 109.242 372 244-166.55 244-372 244zm407.82-376.616c-20.5-32.112-48.218-61.372-81.666-86.738C848.43 463.004 870.492 448 896 448c35.29 0 64 28.71 64 64 0 26.872-16.656 49.914-40.18 59.384z"/></symbol>
<symbol id="icon-twitter" viewBox="0 0 1024 1024"><title>twitter</title><path d="M1024 226.4c-37.6 16.8-78.2 28-120.6 33 43.4-26 76.6-67.2 92.4-116.2-40.6 24-85.6 41.6-133.4 51C824 153.4 769.4 128 709 128c-116 0-210 94-210 210 0 16.4 1.8 32.4 5.4 47.8-174.6-8.8-329.4-92.4-433-219.6-18 31-28.4 67.2-28.4 105.6 0 72.8 37 137.2 93.4 174.8-34.4-1-66.8-10.6-95.2-26.2v2.6c0 101.8 72.4 186.8 168.6 206-17.6 4.8-36.2 7.4-55.4 7.4-13.6 0-26.6-1.4-39.6-3.8 26.8 83.4 104.4 144.2 196.2 146-72 56.4-162.4 90-261 90-17 0-33.6-1-50.2-3C93 925.4 203.4 960 322 960c386.4 0 597.8-320.2 597.8-597.8 0-9.2-.2-18.2-.6-27.2 41-29.4 76.6-66.4 104.8-108.6z"/></symbol>
</svg>
